<svg id="visual" viewBox="0 0 900 600" width="900" height="600" xmlns="http://www.w3.org/2000/svg" xmlns:xlink="http://www.w3.org/1999/xlink" version="1.1"><rect x="0" y="0" width="900" height="600" fill="#f8f9fa"></rect><path d="M0 379L30 386.8C60 394.7 120 410.3 180 417C240 423.7 300 421.3 360 414C420 406.7 480 394.3 540 403.2C600 412 660 442 720 445.8C780 449.7 840 427.3 870 416.2L900 405L900 601L870 601C840 601 780 601 720 601C660 601 600 601 540 601C480 601 420 601 360 601C300 601 240 601 180 601C120 601 60 601 30 601L0 601Z" fill="#ff7301" stroke-linecap="round" stroke-linejoin="miter"></path></svg>