<svg id="visual" viewBox="0 0 900 600" width="900" height="600" xmlns="http://www.w3.org/2000/svg" xmlns:xlink="http://www.w3.org/1999/xlink" version="1.1"><path d="M0 73L25 72C50 71 100 69 150 64C200 59 250 51 300 50C350 49 400 55 450 55C500 55 550 49 600 51C650 53 700 63 750 65C800 67 850 61 875 58L900 55L900 0L875 0C850 0 800 0 750 0C700 0 650 0 600 0C550 0 500 0 450 0C400 0 350 0 300 0C250 0 200 0 150 0C100 0 50 0 25 0L0 0Z" fill="#faa655"></path><path d="M0 217L25 217C50 217 100 217 150 220C200 223 250 229 300 227C350 225 400 215 450 213C500 211 550 217 600 212C650 207 700 191 750 189C800 187 850 199 875 205L900 211L900 53L875 56C850 59 800 65 750 63C700 61 650 51 600 49C550 47 500 53 450 53C400 53 350 47 300 48C250 49 200 57 150 62C100 67 50 69 25 70L0 71Z" fill="#f7973b"></path><path d="M0 409L25 401C50 393 100 377 150 378C200 379 250 397 300 390C350 383 400 351 450 346C500 341 550 363 600 370C650 377 700 369 750 365C800 361 850 361 875 361L900 361L900 209L875 203C850 197 800 185 750 187C700 189 650 205 600 210C550 215 500 209 450 211C400 213 350 223 300 225C250 227 200 221 150 218C100 215 50 215 25 215L0 215Z" fill="#f5871b"></path><path d="M0 487L25 483C50 479 100 471 150 471C200 471 250 479 300 474C350 469 400 451 450 445C500 439 550 445 600 450C650 455 700 459 750 462C800 465 850 467 875 468L900 469L900 359L875 359C850 359 800 359 750 363C700 367 650 375 600 368C550 361 500 339 450 344C400 349 350 381 300 388C250 395 200 377 150 376C100 375 50 391 25 399L0 407Z" fill="#e57801"></path><path d="M0 547L25 546C50 545 100 543 150 541C200 539 250 537 300 532C350 527 400 519 450 515C500 511 550 511 600 516C650 521 700 531 750 536C800 541 850 541 875 541L900 541L900 467L875 466C850 465 800 463 750 460C700 457 650 453 600 448C550 443 500 437 450 443C400 449 350 467 300 472C250 477 200 469 150 469C100 469 50 477 25 481L0 485Z" fill="#cb6b03"></path><path d="M0 601L25 601C50 601 100 601 150 601C200 601 250 601 300 601C350 601 400 601 450 601C500 601 550 601 600 601C650 601 700 601 750 601C800 601 850 601 875 601L900 601L900 539L875 539C850 539 800 539 750 534C700 529 650 519 600 514C550 509 500 509 450 513C400 517 350 525 300 530C250 535 200 537 150 539C100 541 50 543 25 544L0 545Z" fill="#b15e05"></path></svg>