<svg id="visual" viewBox="0 0 900 600" width="900" height="600" xmlns="http://www.w3.org/2000/svg" xmlns:xlink="http://www.w3.org/1999/xlink" version="1.1"><rect x="0" y="0" width="900" height="600" fill="#f8f9fa"></rect><defs><linearGradient id="grad1_0" x1="33.3%" y1="0%" x2="100%" y2="100%"><stop offset="20%" stop-color="#f8f9fa" stop-opacity="1"></stop><stop offset="80%" stop-color="#f8f9fa" stop-opacity="1"></stop></linearGradient></defs><defs><linearGradient id="grad2_0" x1="0%" y1="0%" x2="66.7%" y2="100%"><stop offset="20%" stop-color="#f8f9fa" stop-opacity="1"></stop><stop offset="80%" stop-color="#f8f9fa" stop-opacity="1"></stop></linearGradient></defs><g transform="translate(900, 0)"><path d="M0 405.6C-42.3 371.1 -84.6 336.6 -132 318.7C-179.4 300.9 -232 299.7 -275.8 275.8C-319.6 251.8 -354.6 205 -374.7 155.2C-394.9 105.5 -400.3 52.7 -405.6 0L0 0Z" fill="#e88b00"></path></g><g transform="translate(0, 600)"><path d="M0 -405.6C57.7 -399.5 115.4 -393.4 149.2 -360.3C183.1 -327.2 193.2 -267 232.6 -232.6C272.1 -198.3 341 -189.7 374.7 -155.2C408.5 -120.8 407.1 -60.4 405.6 0L0 0Z" fill="#e88b00"></path></g></svg>