<svg id="visual" viewBox="0 0 900 600" width="900" height="600" xmlns="http://www.w3.org/2000/svg" xmlns:xlink="http://www.w3.org/1999/xlink" version="1.1"><rect x="0" y="0" width="900" height="600" fill="#F5F5F7"></rect><path d="M0 337L21.5 324.7C43 312.3 86 287.7 128.8 281.3C171.7 275 214.3 287 257.2 284.5C300 282 343 265 385.8 270C428.7 275 471.3 302 514.2 314.7C557 327.3 600 325.7 642.8 318.7C685.7 311.7 728.3 299.3 771.2 291C814 282.7 857 278.3 878.5 276.2L900 274L900 601L878.5 601C857 601 814 601 771.2 601C728.3 601 685.7 601 642.8 601C600 601 557 601 514.2 601C471.3 601 428.7 601 385.8 601C343 601 300 601 257.2 601C214.3 601 171.7 601 128.8 601C86 601 43 601 21.5 601L0 601Z" fill="#f7770f"></path><path d="M0 399L21.5 396C43 393 86 387 128.8 372.5C171.7 358 214.3 335 257.2 334.3C300 333.7 343 355.3 385.8 370C428.7 384.7 471.3 392.3 514.2 384.2C557 376 600 352 642.8 351.5C685.7 351 728.3 374 771.2 370.8C814 367.7 857 338.3 878.5 323.7L900 309L900 601L878.5 601C857 601 814 601 771.2 601C728.3 601 685.7 601 642.8 601C600 601 557 601 514.2 601C471.3 601 428.7 601 385.8 601C343 601 300 601 257.2 601C214.3 601 171.7 601 128.8 601C86 601 43 601 21.5 601L0 601Z" fill="#c54c07"></path><path d="M0 401L21.5 406.3C43 411.7 86 422.3 128.8 418.2C171.7 414 214.3 395 257.2 396.8C300 398.7 343 421.3 385.8 421.2C428.7 421 471.3 398 514.2 396.5C557 395 600 415 642.8 428.3C685.7 441.7 728.3 448.3 771.2 438.5C814 428.7 857 402.3 878.5 389.2L900 376L900 601L878.5 601C857 601 814 601 771.2 601C728.3 601 685.7 601 642.8 601C600 601 557 601 514.2 601C471.3 601 428.7 601 385.8 601C343 601 300 601 257.2 601C214.3 601 171.7 601 128.8 601C86 601 43 601 21.5 601L0 601Z" fill="#922200"></path><path d="M0 486L21.5 481.5C43 477 86 468 128.8 467.8C171.7 467.7 214.3 476.3 257.2 479C300 481.7 343 478.3 385.8 472.3C428.7 466.3 471.3 457.7 514.2 452.2C557 446.7 600 444.3 642.8 448.3C685.7 452.3 728.3 462.7 771.2 466.5C814 470.3 857 467.7 878.5 466.3L900 465L900 601L878.5 601C857 601 814 601 771.2 601C728.3 601 685.7 601 642.8 601C600 601 557 601 514.2 601C471.3 601 428.7 601 385.8 601C343 601 300 601 257.2 601C214.3 601 171.7 601 128.8 601C86 601 43 601 21.5 601L0 601Z" fill="#640000"></path><path d="M0 516L21.5 515.2C43 514.3 86 512.7 128.8 511.7C171.7 510.7 214.3 510.3 257.2 515C300 519.7 343 529.3 385.8 529.5C428.7 529.7 471.3 520.3 514.2 521.7C557 523 600 535 642.8 533.3C685.7 531.7 728.3 516.3 771.2 519C814 521.7 857 542.3 878.5 552.7L900 563L900 601L878.5 601C857 601 814 601 771.2 601C728.3 601 685.7 601 642.8 601C600 601 557 601 514.2 601C471.3 601 428.7 601 385.8 601C343 601 300 601 257.2 601C214.3 601 171.7 601 128.8 601C86 601 43 601 21.5 601L0 601Z" fill="#000000"></path></svg>