<svg id="visual" viewBox="0 0 900 600" width="900" height="600" xmlns="http://www.w3.org/2000/svg" xmlns:xlink="http://www.w3.org/1999/xlink" version="1.1"><rect x="0" y="0" width="900" height="600" fill="#001220"></rect><path d="M0 421L21.5 414.2C43 407.3 86 393.7 128.8 397C171.7 400.3 214.3 420.7 257.2 430C300 439.3 343 437.7 385.8 438.5C428.7 439.3 471.3 442.7 514.2 437C557 431.3 600 416.7 642.8 400.7C685.7 384.7 728.3 367.3 771.2 359.7C814 352 857 354 878.5 355L900 356L900 601L878.5 601C857 601 814 601 771.2 601C728.3 601 685.7 601 642.8 601C600 601 557 601 514.2 601C471.3 601 428.7 601 385.8 601C343 601 300 601 257.2 601C214.3 601 171.7 601 128.8 601C86 601 43 601 21.5 601L0 601Z" fill="#fa7268"></path><path d="M0 458L21.5 460.8C43 463.7 86 469.3 128.8 463.7C171.7 458 214.3 441 257.2 429C300 417 343 410 385.8 418.2C428.7 426.3 471.3 449.7 514.2 457.8C557 466 600 459 642.8 456.7C685.7 454.3 728.3 456.7 771.2 451C814 445.3 857 431.7 878.5 424.8L900 418L900 601L878.5 601C857 601 814 601 771.2 601C728.3 601 685.7 601 642.8 601C600 601 557 601 514.2 601C471.3 601 428.7 601 385.8 601C343 601 300 601 257.2 601C214.3 601 171.7 601 128.8 601C86 601 43 601 21.5 601L0 601Z" fill="#ef5f67"></path><path d="M0 445L21.5 445.8C43 446.7 86 448.3 128.8 455.7C171.7 463 214.3 476 257.2 482.8C300 489.7 343 490.3 385.8 485.2C428.7 480 471.3 469 514.2 462.7C557 456.3 600 454.7 642.8 462.8C685.7 471 728.3 489 771.2 490.5C814 492 857 477 878.5 469.5L900 462L900 601L878.5 601C857 601 814 601 771.2 601C728.3 601 685.7 601 642.8 601C600 601 557 601 514.2 601C471.3 601 428.7 601 385.8 601C343 601 300 601 257.2 601C214.3 601 171.7 601 128.8 601C86 601 43 601 21.5 601L0 601Z" fill="#e34c67"></path><path d="M0 488L21.5 493.5C43 499 86 510 128.8 513.7C171.7 517.3 214.3 513.7 257.2 512.2C300 510.7 343 511.3 385.8 515.5C428.7 519.7 471.3 527.3 514.2 524.5C557 521.7 600 508.3 642.8 508.8C685.7 509.3 728.3 523.7 771.2 530.5C814 537.3 857 536.7 878.5 536.3L900 536L900 601L878.5 601C857 601 814 601 771.2 601C728.3 601 685.7 601 642.8 601C600 601 557 601 514.2 601C471.3 601 428.7 601 385.8 601C343 601 300 601 257.2 601C214.3 601 171.7 601 128.8 601C86 601 43 601 21.5 601L0 601Z" fill="#d53867"></path><path d="M0 533L21.5 533C43 533 86 533 128.8 533C171.7 533 214.3 533 257.2 539.7C300 546.3 343 559.7 385.8 563C428.7 566.3 471.3 559.7 514.2 559.3C557 559 600 565 642.8 561C685.7 557 728.3 543 771.2 542.5C814 542 857 555 878.5 561.5L900 568L900 601L878.5 601C857 601 814 601 771.2 601C728.3 601 685.7 601 642.8 601C600 601 557 601 514.2 601C471.3 601 428.7 601 385.8 601C343 601 300 601 257.2 601C214.3 601 171.7 601 128.8 601C86 601 43 601 21.5 601L0 601Z" fill="#c62368"></path></svg>