<svg id="visual" viewBox="0 0 900 600" width="900" height="600" xmlns="http://www.w3.org/2000/svg" xmlns:xlink="http://www.w3.org/1999/xlink" version="1.1"><rect x="0" y="0" width="900" height="600" fill="#000000"></rect><defs><linearGradient id="grad1_0" x1="33.3%" y1="0%" x2="100%" y2="100%"><stop offset="20%" stop-color="#f7770f" stop-opacity="1"></stop><stop offset="80%" stop-color="#f7770f" stop-opacity="1"></stop></linearGradient></defs><defs><linearGradient id="grad1_1" x1="33.3%" y1="0%" x2="100%" y2="100%"><stop offset="20%" stop-color="#f7770f" stop-opacity="1"></stop><stop offset="80%" stop-color="#c34d00" stop-opacity="1"></stop></linearGradient></defs><defs><linearGradient id="grad1_2" x1="33.3%" y1="0%" x2="100%" y2="100%"><stop offset="20%" stop-color="#922200" stop-opacity="1"></stop><stop offset="80%" stop-color="#c34d00" stop-opacity="1"></stop></linearGradient></defs><defs><linearGradient id="grad1_3" x1="33.3%" y1="0%" x2="100%" y2="100%"><stop offset="20%" stop-color="#922200" stop-opacity="1"></stop><stop offset="80%" stop-color="#660000" stop-opacity="1"></stop></linearGradient></defs><defs><linearGradient id="grad1_4" x1="33.3%" y1="0%" x2="100%" y2="100%"><stop offset="20%" stop-color="#000000" stop-opacity="1"></stop><stop offset="80%" stop-color="#660000" stop-opacity="1"></stop></linearGradient></defs><defs><linearGradient id="grad2_0" x1="0%" y1="0%" x2="66.7%" y2="100%"><stop offset="20%" stop-color="#f7770f" stop-opacity="1"></stop><stop offset="80%" stop-color="#f7770f" stop-opacity="1"></stop></linearGradient></defs><defs><linearGradient id="grad2_1" x1="0%" y1="0%" x2="66.7%" y2="100%"><stop offset="20%" stop-color="#c34d00" stop-opacity="1"></stop><stop offset="80%" stop-color="#f7770f" stop-opacity="1"></stop></linearGradient></defs><defs><linearGradient id="grad2_2" x1="0%" y1="0%" x2="66.7%" y2="100%"><stop offset="20%" stop-color="#c34d00" stop-opacity="1"></stop><stop offset="80%" stop-color="#922200" stop-opacity="1"></stop></linearGradient></defs><defs><linearGradient id="grad2_3" x1="0%" y1="0%" x2="66.7%" y2="100%"><stop offset="20%" stop-color="#660000" stop-opacity="1"></stop><stop offset="80%" stop-color="#922200" stop-opacity="1"></stop></linearGradient></defs><defs><linearGradient id="grad2_4" x1="0%" y1="0%" x2="66.7%" y2="100%"><stop offset="20%" stop-color="#660000" stop-opacity="1"></stop><stop offset="80%" stop-color="#000000" stop-opacity="1"></stop></linearGradient></defs><g transform="translate(900, 0)"><path d="M0 405.6C-53.5 400 -107.1 394.3 -155.2 374.7C-203.4 355.2 -246.2 321.8 -283.5 283.5C-320.9 245.3 -352.9 202.3 -372.3 154.2C-391.8 106.2 -398.7 53.1 -405.6 0L0 0Z" fill="#520000"></path><path d="M0 324.5C-42.8 320 -85.7 315.4 -124.2 299.8C-162.7 284.2 -196.9 257.4 -226.8 226.8C-256.7 196.3 -282.3 161.8 -297.9 123.4C-313.4 84.9 -319 42.5 -324.5 0L0 0Z" fill="#7b0400"></path><path d="M0 243.4C-32.1 240 -64.2 236.6 -93.1 224.8C-122 213.1 -147.7 193.1 -170.1 170.1C-192.6 147.2 -211.7 121.4 -223.4 92.5C-235.1 63.7 -239.2 31.8 -243.4 0L0 0Z" fill="#aa3800"></path><path d="M0 162.2C-21.4 160 -42.8 157.7 -62.1 149.9C-81.4 142.1 -98.5 128.7 -113.4 113.4C-128.4 98.1 -141.2 80.9 -148.9 61.7C-156.7 42.5 -159.5 21.2 -162.2 0L0 0Z" fill="#dd6200"></path><path d="M0 81.1C-10.7 80 -21.4 78.9 -31 74.9C-40.7 71 -49.2 64.4 -56.7 56.7C-64.2 49.1 -70.6 40.5 -74.5 30.8C-78.4 21.2 -79.7 10.6 -81.1 0L0 0Z" fill="#f7770f"></path></g><g transform="translate(0, 600)"><path d="M0 -405.6C41.7 -363.9 83.5 -322.1 123.2 -297.5C163 -272.9 200.8 -265.4 246.8 -246.8C292.8 -228.1 346.9 -198.2 374.7 -155.2C402.6 -112.2 404.1 -56.1 405.6 0L0 0Z" fill="#520000"></path><path d="M0 -324.5C33.4 -291.1 66.8 -257.7 98.6 -238C130.4 -218.3 160.6 -212.4 197.4 -197.4C234.2 -182.5 277.5 -158.6 299.8 -124.2C322.1 -89.8 323.3 -44.9 324.5 0L0 0Z" fill="#7b0400"></path><path d="M0 -243.4C25 -218.3 50.1 -193.3 73.9 -178.5C97.8 -163.7 120.5 -159.3 148.1 -148.1C175.7 -136.9 208.1 -118.9 224.8 -93.1C241.6 -67.3 242.5 -33.7 243.4 0L0 0Z" fill="#aa3800"></path><path d="M0 -162.2C16.7 -145.5 33.4 -128.8 49.3 -119C65.2 -109.2 80.3 -106.2 98.7 -98.7C117.1 -91.2 138.8 -79.3 149.9 -62.1C161 -44.9 161.6 -22.4 162.2 0L0 0Z" fill="#dd6200"></path><path d="M0 -81.1C8.3 -72.8 16.7 -64.4 24.6 -59.5C32.6 -54.6 40.2 -53.1 49.4 -49.4C58.6 -45.6 69.4 -39.6 74.9 -31C80.5 -22.4 80.8 -11.2 81.1 0L0 0Z" fill="#f7770f"></path></g></svg>