<?xml version="1.0" encoding="utf-8"?>
<svg version="1.0" width="497.000000pt" height="473.000000pt" viewBox="0 0 497.000000 473.000000" preserveAspectRatio="xMidYMid meet" xmlns="http://www.w3.org/2000/svg">
  <g transform="translate(0.000000,473.000000) scale(0.100000,-0.100000)" fill="#000000" stroke="none">
    <path d="M2253 4674 c-189 -26 -360 -96 -453 -186 -25 -24 -70 -75 -101 -114 -73 -91 -169 -156 -325 -218 -279 -111 -345 -182 -395 -426 -27 -134 -70 -253 -113 -310 -22 -30 -54 -57 -94 -78 -75 -40 -92 -63 -92 -123 0 -163 143 -386 326 -508 l73 -49 -44 -26 c-39 -23 -115 -102 -115 -120 0 -3 16 -6 36 -6 28 0 46 9 80 39 73 64 136 62 216 -8 32 -28 42 -31 102 -31 62 0 66 1 66 23 0 32 66 453 91 577 51 263 197 416 438 457 121 21 189 15 236 -23 94 -75 90 -74 308 -74 216 0 241 5 303 60 46 40 103 54 194 46 196 -16 349 -113 433 -274 41 -78 55 -131 91 -347 21 -127 66 -426 66 -440 0 -10 139 -4 145 5 4 6 30 24 58 40 85 49 192 36 251 -29 20 -22 96 -31 96 -11 0 6 -18 30 -40 54 -35 38 -59 52 -139 83 -22 8 -21 10 32 45 143 96 258 238 308 382 50 143 36 215 -49 249 -109 44 -157 128 -222 390 -62 252 -125 327 -347 412 -201 77 -289 136 -388 257 -82 100 -101 117 -186 168 -187 111 -528 157 -846 114z"/>
    <path d="M1878 2700 c-68 -12 -143 -56 -199 -118 -27 -29 -49 -58 -49 -63 0 -19 72 -8 123 19 46 24 63 27 147 27 81 0 105 -4 161 -28 59 -24 77 -27 187 -27 72 0 122 4 122 10 0 24 -69 83 -133 115 -118 57 -259 83 -359 65z"/>
    <path d="M2955 2695 c-138 -25 -273 -93 -308 -154 l-18 -31 124 0 c113 0 130 3 208 31 110 40 203 39 291 -4 38 -19 69 -27 92 -25 l35 3 -35 48 c-48 66 -137 122 -217 136 -76 13 -82 13 -172 -4z"/>
    <path d="M1640 2383 c-31 -12 -60 -47 -60 -73 0 -37 37 -68 94 -79 54 -10 66 -18 46 -31 -23 -15 -63 -12 -88 6 -21 14 -23 14 -31 -8 -23 -59 98 -90 153 -39 53 50 20 113 -68 130 -54 10 -66 18 -46 31 23 15 63 12 88 -6 21 -14 23 -14 31 8 7 17 5 28 -8 41 -19 19 -84 31 -111 20z"/>
    <path d="M2484 2376 c-51 -23 -71 -117 -40 -191 17 -40 72 -62 129 -51 57 11 72 36 72 127 0 67 -3 82 -21 100 -27 27 -98 35 -140 15z m106 -65 c14 -27 13 -84 -3 -105 -9 -13 -23 -17 -52 -14 l-40 3 -3 54 c-4 73 0 81 47 81 30 0 43 -5 51 -19z"/>
    <path d="M355 2368 c-3 -7 -23 -62 -45 -122 -22 -60 -40 -110 -40 -112 0 -2 14 -4 30 -4 20 0 30 5 30 15 0 22 118 22 126 0 4 -9 19 -15 35 -15 l28 0 -38 108 c-22 59 -42 115 -46 125 -8 20 -73 24 -80 5z m54 -80 c25 -68 25 -68 -13 -68 -41 0 -42 3 -21 54 18 42 23 44 34 14z"/>
    <path d="M600 2255 l0 -125 25 0 c16 0 25 6 25 15 0 10 10 15 30 15 18 0 33 -6 36 -15 4 -8 18 -15 34 -15 22 0 27 4 23 18 -3 12 7 30 26 50 35 35 41 83 16 131 -18 37 -60 51 -146 51 l-69 0 0 -125z m161 55 c11 -6 19 -21 19 -35 0 -38 -25 -55 -81 -55 l-49 0 0 50 0 50 46 0 c25 0 54 -5 65 -10z"/>
    <path d="M920 2350 c0 -28 2 -30 40 -30 l40 0 0 -95 0 -95 30 0 30 0 0 95 0 95 40 0 c38 0 40 2 40 30 l0 30 -110 0 -110 0 0 -30z"/>
    <path d="M1440 2255 l0 -125 30 0 30 0 0 125 0 125 -30 0 -30 0 0 -125z"/>
    <path d="M2128 2255 c39 -107 48 -125 67 -125 11 0 26 5 33 12 9 9 12 9 12 0 0 -7 11 -12 24 -12 17 0 27 8 34 28 5 15 26 71 46 125 l35 97 -28 0 c-26 0 -30 -6 -51 -62 -29 -83 -36 -88 -51 -39 -15 50 -26 52 -35 6 -3 -19 -10 -37 -14 -40 -5 -3 -20 26 -35 65 -24 63 -29 70 -54 70 l-28 0 45 -125z"/>
    <path d="M2740 2255 l0 -125 25 0 c24 0 25 2 25 65 0 36 3 65 8 65 4 -1 25 -30 47 -65 30 -49 45 -65 62 -65 23 0 23 2 23 125 l0 125 -25 0 c-23 0 -24 -3 -27 -67 l-3 -67 -44 67 c-33 52 -49 67 -67 67 l-24 0 0 -125z"/>
    <path d="M3020 2255 l0 -127 86 3 c82 4 87 5 115 37 25 27 29 41 29 87 0 46 -4 60 -29 87 -28 32 -33 33 -115 37 l-86 3 0 -127z m164 49 c9 -8 16 -31 16 -49 0 -46 -22 -65 -76 -65 l-44 0 0 65 0 65 44 0 c27 0 51 -6 60 -16z"/>
    <path d="M3330 2255 l0 -125 100 0 100 0 0 30 0 30 -70 0 c-40 0 -70 4 -70 10 0 6 25 10 55 10 54 0 55 0 55 30 0 30 -1 30 -55 30 -52 0 -55 1 -55 25 0 24 2 25 70 25 l70 0 0 30 0 30 -100 0 -100 0 0 -125z"/>
    <path d="M3630 2255 l0 -125 25 0 c16 0 25 6 25 15 0 10 10 15 30 15 18 0 33 -6 36 -15 4 -9 19 -15 36 -15 24 0 28 3 23 19 -4 14 0 23 14 31 24 12 51 60 51 90 0 34 -28 78 -60 95 -18 9 -57 15 -105 15 l-75 0 0 -125z m168 53 c7 -7 12 -24 12 -38 0 -38 -18 -50 -76 -50 l-52 0 1 50 1 50 51 0 c28 0 56 -5 63 -12z"/>
    <path d="M3950 2255 l0 -125 25 0 c22 0 25 4 25 35 l0 35 60 0 60 0 0 30 0 30 -60 0 -60 0 0 30 0 30 75 0 75 0 0 30 0 30 -100 0 -100 0 0 -125z"/>
    <path d="M4230 2286 c0 -86 2 -98 24 -123 21 -25 31 -28 81 -28 50 0 60 3 81 28 22 25 24 37 24 123 0 94 0 94 -25 94 -25 0 -25 -1 -25 -83 0 -92 -8 -107 -55 -107 -47 0 -55 15 -55 107 0 82 0 83 -25 83 -25 0 -25 0 -25 -94z"/>
    <path d="M4520 2255 l0 -125 95 0 95 0 0 30 0 30 -71 0 -72 0 5 95 5 95 -28 0 -29 0 0 -125z"/>
    <path d="M540 1966 c0 -2 29 -22 65 -45 83 -54 181 -150 280 -276 102 -129 256 -282 370 -368 117 -89 301 -179 430 -213 180 -46 371 -44 585 7 99 23 153 53 158 87 8 57 -33 64 -153 27 -145 -45 -239 -59 -400 -58 -118 1 -166 5 -227 21 -247 66 -457 204 -680 445 -191 206 -281 293 -347 336 -58 37 -81 48 -81 37z"/>
    <path d="M1066 1918 c84 -89 101 -119 135 -233 67 -229 124 -327 214 -369 57 -27 134 -18 184 22 39 31 39 31 45 9 3 -13 8 -50 12 -82 7 -64 22 -85 61 -85 21 0 22 3 17 48 -22 178 -49 245 -167 409 -98 137 -113 163 -142 258 l-21 70 -47 3 c-43 3 -61 -8 -38 -22 5 -4 21 -37 36 -75 20 -55 24 -74 16 -90 -30 -55 3 -180 54 -203 27 -12 55 2 55 29 0 8 5 11 10 8 18 -11 110 -147 110 -163 0 -8 -15 -29 -34 -48 -28 -28 -42 -34 -75 -34 -85 0 -150 95 -216 315 -39 131 -55 163 -117 236 -39 47 -44 49 -91 49 l-50 0 49 -52z"/>
    <path d="M1805 1944 c42 -34 127 -58 186 -51 51 6 117 35 138 61 12 14 10 16 -7 16 -12 0 -44 -9 -72 -20 -64 -25 -113 -25 -169 0 -24 11 -57 20 -75 20 l-31 -1 30 -25z"/>
    <path d="M2360 1917 c0 -107 -38 -207 -114 -301 -38 -47 -43 -56 -30 -67 33 -27 150 147 173 259 6 29 11 78 11 107 0 48 -2 55 -20 55 -17 0 -20 -7 -20 -53z"/>
    <path d="M2616 1955 c-6 -18 9 -143 24 -195 19 -69 124 -220 152 -220 24 0 17 34 -15 69 -76 84 -117 189 -117 298 0 55 -2 63 -19 63 -10 0 -21 -7 -25 -15z"/>
    <path d="M2875 1945 c46 -38 118 -58 181 -52 52 5 154 51 154 69 0 13 -49 9 -81 -8 -52 -26 -118 -28 -179 -5 -30 12 -66 21 -80 21 l-25 -1 30 -24z"/>
    <path d="M3576 1909 c-24 -87 -69 -171 -147 -274 -37 -50 -84 -124 -103 -165 -34 -74 -66 -199 -66 -261 0 -30 1 -31 32 -25 17 3 33 8 35 10 2 2 9 35 14 72 15 109 16 110 47 81 40 -37 66 -47 117 -47 83 0 160 58 208 155 14 28 43 108 66 178 47 148 62 180 125 265 25 34 46 64 46 67 0 3 -19 5 -43 5 -41 0 -44 -2 -84 -62 -57 -86 -65 -106 -108 -243 -72 -231 -133 -309 -230 -291 -32 6 -85 55 -85 77 0 16 19 49 63 107 l39 54 19 -21 c24 -26 30 -26 62 0 45 35 71 173 37 194 -7 4 20 84 55 168 6 15 1 17 -37 17 l-45 0 -17 -61z"/>
    <path d="M4415 1953 c-58 -30 -163 -123 -246 -215 -235 -261 -405 -408 -579 -497 -266 -137 -515 -154 -857 -59 -95 26 -117 29 -138 20 -21 -10 -26 -18 -23 -39 4 -39 53 -68 156 -92 306 -72 534 -51 797 74 217 103 398 260 624 542 85 107 187 202 265 248 25 15 46 29 46 31 0 7 -15 3 -45 -13z"/>
    <path d="M2246 1424 c-9 -8 -16 -19 -16 -24 0 -22 73 -70 87 -57 2 3 33 -8 68 -24 93 -44 121 -46 196 -14 35 15 81 30 101 35 36 7 64 23 80 45 11 15 10 22 -8 39 -19 20 -45 14 -144 -32 -41 -19 -91 -34 -110 -34 -19 0 -69 15 -110 34 -101 46 -125 52 -144 32z"/>
    <path d="M1687 968 c8 -61 50 -202 74 -251 58 -115 164 -212 299 -275 41 -19 98 -49 125 -68 150 -100 481 -100 630 0 28 18 93 55 145 82 126 64 226 158 276 258 34 71 86 278 72 291 -4 4 -19 4 -35 1 -27 -6 -30 -11 -45 -93 -31 -163 -114 -285 -253 -368 -45 -27 -67 -34 -87 -30 -24 6 -35 -1 -81 -48 -73 -76 -127 -92 -307 -92 -182 0 -235 16 -308 92 -44 46 -56 54 -77 49 -53 -13 -184 76 -251 170 -48 68 -88 171 -100 262 -5 40 -11 51 -28 56 -49 13 -54 9 -49 -36z"/>
    <path d="M2400 977 c-3 -3 -69 -7 -146 -10 -111 -4 -148 -9 -168 -22 -47 -31 -22 -91 26 -63 18 10 104 13 388 13 284 0 370 -3 388 -13 27 -15 52 -2 52 28 0 33 -45 51 -143 55 -93 5 -237 6 -292 3 -16 -1 -46 2 -65 6 -19 4 -37 5 -40 3z"/>
    <path d="M2665 810 c-3 -5 -82 -8 -193 -7 -184 2 -187 2 -190 -19 -7 -47 14 -52 215 -53 157 0 191 3 206 16 21 20 22 37 1 57 -18 18 -30 20 -39 6z"/>
  </g>
</svg>